<svg version="1.1" id="svg2" xmlns="http://www.w3.org/2000/svg" x="0" y="0" viewBox="0 0 400 133.3" style="enable-background:new 0 0 400 133.3" xml:space="preserve"><style>.st0{fill:#fff}</style><path class="st0" d="M34.8 26.5 10 99.1c0 .6.6 1.5.8 1.5h12.6c.6 0 .8-.6.8-.8l6.5-20.2c0-.6.6-.8.8-.8h19c.6 0 .8.6.8.8l6.5 20.2c0 .6.6.8.8.8h12.8c.8 0 1.5-.8.8-1.5l-23-72.6c0-.6-.6-.8-.8-.8H35.6c-.6.6-.8.6-.8.8zm11.9 39.9H36.2c-.8 0-1.5-.8-.8-1.5L40.3 50c.6-.8 2.1-.8 2.1 0l4.9 14.9c.9.8.5 1.5-.6 1.5zM99.7 66.4c-6.5-2.7-7.8-4.1-7.8-5.9 0-2.3 2.1-4.1 5.6-4.1 4.1 0 7.8 1.5 8.7 2.3l2.7 2.1 4.1-12-2.1-1.5c-3.5-2.1-8.4-3.5-14-3.5-11.3 0-19.3 7.8-19.3 17S86 75 92.5 77.3c6.5 2.3 7.8 4.4 7.8 6.2 0 4.1-4.4 4.9-6.5 4.9-4.1 0-8.4-1.5-10.7-2.7l-2.7-2.1-4.1 12.2 2.1.8c4.1 2.3 9.9 4.1 15.1 4.1 12.8 0 21.2-6.5 21.2-17.7-.3-9.5-8.8-13.7-15-16.6zM137 32.7l-14.3 4.4v8.4h-7.9v12.2h7.9v24.8c0 6.5 1.5 12 4.4 14.9 2.7 2.7 6.5 4.9 12 4.9 4.4 0 7.8-.8 8.7-1.5l2.1-.6-.6-12.2-3.5.8h-4.9c-1.5 0-4.1 0-4.1-6.5V57.8h12.8V45.7h-12.8l.2-13zM183.8 44.9l-2.3-.6h-2.3c-4.4 0-8.7 2.1-12 4.9V45h-13.1v2.7c.6 4.4.6 8.7.6 15.1v37H169V71.4c0-1.5 0-2.7.6-4.1.8-5.9 4.4-9.3 9.3-9.3h2.3l3.5.6v-14l-.9.3zM210.6 44.7c-16.3 0-27.1 12-27.1 29.1 0 16.6 10.7 27.9 26.5 27.9 13.1 0 27.7-8.7 27.7-29.1-.4-16.1-11.8-27.9-27.1-27.9zm11.6 28.5c0 9.9-5.6 16.6-12.2 16.6s-12.2-6.5-12.2-16.3c0-5.9 2.3-16.3 12.2-16.3 9.6-.3 12.2 10.1 12.2 16zM284.3 32.1c-4.9-4.4-12-6.2-21.2-6.2-6.2 0-12.2.6-17.7 1.5l-2.3.6v73.2h14.3V74.1h4.4c9.9 0 17.7-2.7 23-8.4 4.1-4.1 5.9-9.9 5.9-16.6.2-6.9-2.1-12.9-6.4-17zM277.2 49c0 10.5-9.3 12-14.9 12-2.1 0-3.5 0-4.4-.6V38.3c1.5 0 3.5-.6 5.9-.6 5.6.6 13.4 2.5 13.4 11.3zM334.8 86V67.4c0-14.9-7.9-23-21.5-23-6.2 0-13.1 2.1-17.7 4.9l-2.1.8 4.1 11.3 2.7-2.1c2.7-2.1 7.8-3.5 11.3-3.5 2.7 0 4.9.6 6.2 2.1.8.8 2.1 2.7 2.1 4.9-11.3.6-19.3 2.7-24.8 7.9-3.5 3.5-5.6 7.9-5.6 13.1 0 8.4 5.9 16.6 17.7 16.6 4.9 0 9.9-1.5 13.1-4.4l.6 3.5h14l-.6-2.7c.5-2 .5-6.1.5-10.8zm-24 4c-2.1 0-5.9-.8-5.9-5.9 0-2.1.6-3.5 2.1-4.9 1.5-1.2 5.6-3.5 14-4.1V81c0 .6 0 .8-.6 2.1-1.1 3.2-4.3 6.9-9.6 6.9zM374.1 45.5l-10.5 31.2c-.6.8-.6 1.5-.8 2.3-.6-.8-.6-1.5-.8-2.1l-11.3-31.2H335L354.3 95c.6.6.6.8.6.8 0 .6-.6.8-.6.8-1.5 3.5-4.4 6.5-6.5 8.7-2.7 2.3-5.9 3.5-6.5 4.1l-2.3.6 4.1 12.2 2.3-.6c1.5-.6 6.2-1.5 12.2-6.2 6.5-6.2 12-16.3 17.7-31.8l14.9-39-16.1.9z"/><path d="M62.1 46.4c9.3-9.3 25-15.1 41.9-15.1 6.5 0 13.1.8 19 2.3h.6l10.7-3.5-4.9-2.1c-9.4-3.5-20.2-5-31.2-5-16.4 0-31.3 4.1-42.2 10.6l-1.2.8 4.4 13.1 2.9-1.1z" style="fill:#f2493b"/></svg>