<svg version="1.1" id="svg2" xmlns="http://www.w3.org/2000/svg" x="0" y="0" viewBox="0 0 400 133.3" style="enable-background:new 0 0 400 133.3" xml:space="preserve"><style>.st0{fill:#fff}.st1{fill:#3d8526}</style><path class="st0" d="M26.4 23H31c4.1 0 6.8 2.4 7 6.1.2 3.3-2.4 6.5-6.1 6.7-4.1.2-8.1.2-12.2-.2-3.5-.4-5.9-3.3-5.5-6.5.4-3.5 3.1-5.9 6.7-6.1h5.5zM43.9 99h4.8c4.1 0 6.8 2.6 7 6.1 0 3.9-2.6 6.7-6.7 6.7-3.5 0-6.8.2-10.4 0-4.1-.2-6.7-2.8-6.7-6.7 0-3.5 3-6.1 6.8-6.3 1.9.2 3.6.2 5.2.2zM135.6 27.8c-22 0-39.9 17.7-39.9 39.6s17.7 39.6 39.7 39.6c22.2 0 39.9-17.7 39.7-39.6-.1-21.9-17.7-39.6-39.5-39.6zm-7 56.9c-.4-.6-.6-1.1-.9-1.7-.2-.4-.4-.6-.6-.9-.6-.9-.9-1.8-1.5-2.6-.2-.4 0-.9.2-1.3 3.9-6.8 7.8-13.7 11.6-20.5.2-.4.7-.9 1.1-.9h6.5c-5.5 9.6-10.7 18.9-16.3 28.7.1-.4-.1-.6-.1-.8zm25.7-11.3c-.9 0-2 .2-3.3.2h-3.5c-.7 0-1.1.2-1.5.6-.2.2-.6.6-.7.9-2.8 4.8-5.5 9.6-8.1 14.6-.7 1.1-1.3 2.2-1.8 3.3-.4.6-.6.9-1.1 1.7-.4-.7-.9-1.5-1.3-2.2-.4-.6-.6-1.1-.9-1.7-.4-.7-.7-1.3-1.1-1.8-.2-.4 0-.9.4-1.3 1.3-2.2 2.4-4.4 3.7-6.7.6-.9 1.1-1.8 1.7-2.8.2-.6.6-.9.7-1.5.6-.9 1.1-1.8 1.7-2.8 1.1-2 2.2-3.9 3.1-5.7.4-.6.9-.7 1.8-.7h8c4.4 0 7.8-3 7.8-7 0-4.1-3.3-7-7.6-7H137.5c-.4.2-.7.4-1.1.6-.2.2-.4.4-.4.6-3.5 6.5-7.2 12.8-10.9 19.2-.4.6-.6 1.1-1.1 1.8-5.4-9.4-10.5-18.7-15.9-28.1H114.8c.4 0 .6.4.9.7v.2c0 .2.2.2.2.4 1.1 1.8 2.2 3.9 3.3 5.7.7 1.3 1.5 2.4 2 3.5.4.6.6 1.1.9 1.7.4.6.6 1.1.9 1.5.4.6.6.9 1.1 1.7.6-1.1 1.3-2.4 2-3.7 2-3.5 4.1-7 5.9-10.7.6-.9 1.1-1.5 2.2-1.5h19c6.5 0 12.2 5.4 12.8 11.6.5 9.4-6.3 14.4-11.7 14.7z"/><path class="st0" d="M133.8 111.5H68.9c-2 0-3.9-.4-5.5-1.7-2-1.7-2.8-4.4-1.8-7 .9-2.6 3.3-4.3 6.3-4.3h16.3c3 0 5.5-1.8 6.3-4.4.9-3.5-1.1-7-4.8-7.8-.9-.2-1.8-.2-2.8-.2H32.8c-3.5 0-5.9-1.5-6.8-4.3-1.5-4.3 1.7-8.5 6.1-8.5h29.8c3 0 5.5-1.7 6.5-4.3 1.5-4.1-1.7-8.1-6.1-8.3H12.7c-3.3 0-6.1-2.4-6.5-5.4-.4-3.3 1.5-6.3 5-7 .7-.2 1.5-.2 2.4-.2h69.9c.9 0 1.8 0 2.6-.4 3.1-.9 5-3.7 4.6-7-.4-3-3-5.2-6.1-5.2H53.4c-2.4 0-4.6-.6-6.3-2.6-1.5-1.8-1.8-4.1-.7-6.3 1.1-2.4 3-3.7 5.5-3.9h78.5c-11.6 1.7-21.6 6.7-29.4 15.7S89.6 58.3 90.3 70.1c1.5 22.6 19.8 40.5 43.5 41.4zM251 71.4h-9.6c-4.8 12.4-10.5 27.5-15.2 39.6-.4.9-.6 1.7-.9 2.8H234c.7-2.2 2.6-7 3.5-9.6h17c.7 2 2.6 6.8 3.5 9.4h8.9c-5-13.2-10.7-28.9-15.9-42.2zm-10.9 25.1c1.8-5.2 3.7-10.2 5.7-15.7 2 5.5 3.9 10.5 5.7 15.7h-11.4zM320.3 71.4h-9.6c-4.8 12.4-10.5 27.5-15.2 39.6-.4.9-.6 1.7-.9 2.8H303.3c.7-2.2 2.6-7 3.5-9.6h17c.7 2 2.6 6.8 3.5 9.4h8.9c-5-13.2-10.7-28.9-15.9-42.2zm-10.9 25.1c1.8-5.2 3.7-10.2 5.7-15.7 2 5.5 3.9 10.5 5.7 15.7h-11.4z"/><path class="st1" d="M272.6 29.3c-1.1-5.9-5.4-9.4-11.8-9.4-5.4-.2-14.2 0-20.3-.2l.2 42h8.5V45.9h5.5c3.1-.2 6.3 0 9.2-.9 7.4-1.9 10.2-8.2 8.7-15.7zm-14 9c-2.6.2-5.4.2-7.9.2-5 0-1.3.4-1.3 0-.2-3.5 0-7.9 0-11.6 3.5 0 6.7-.2 9.8 0 3.1.4 5.2 2.8 5.2 5.5-.3 3.5-2.5 5.7-5.8 5.9z"/><path class="st0" d="M367.6 71.6H394v7.8h-18.1v9.4H392v7.4h-16.1v9.6h17.9v7.9h-26.3c.1-14 .1-27.9.1-42.1z"/><path class="st1" d="M199.6 61.6c-3.9-10.9-8.7-24-12.6-34.9-.7-2.2-1.7-4.6-2.6-7.2h9.4l10.5 30.7 9.6-30.7h9.6c-2.2 6.1-4.3 11.8-6.3 17.7-2.6 7.2-5.9 16.8-8.7 24.4h-8.9z"/><path class="st0" d="M272.8 113.7c-3.9-10.9-8.7-24-12.6-34.9-.7-2.2-1.7-4.6-2.6-7.2h9.4l10.5 30.7 9.6-30.7h9.6c-2.2 6.1-4.3 11.8-6.3 17.7-2.6 7.2-5.9 16.8-8.7 24.4-2.1-.1-6.3-.1-8.9 0zM346.6 106h18.7v7.8h-27V71.7h8.1c.2 11.4.2 22.6.2 34.3z"/><path class="st1" d="M226.2 19.6h8.3v42h-8.3v-42z"/><path class="st0" d="M214.9 71.6v16.8h-18.3V71.6h-8.3v42.1h8.3V96.5h18.3v17.2h8.4V71.6z"/></svg>