<?xml version="1.0" encoding="UTF-8"?>
<svg width="485px" height="350px" viewBox="0 0 485 350" version="1.1" xmlns="http://www.w3.org/2000/svg" xmlns:xlink="http://www.w3.org/1999/xlink">
    <!-- Generator: Sketch 58 (84663) - https://sketch.com -->
    <title>aviator-plane</title>
    <desc>Created with Sketch.</desc>
    <g id="Page-1" stroke="none" stroke-width="1" fill="none" fill-rule="evenodd">
        <g id="01-Home" transform="translate(-955.000000, -90.000000)" fill="#E50539">
            <g id="bg">
                <g id="aviator-plane" transform="translate(1238.000000, 265.000000) scale(-1, 1) translate(-1238.000000, -265.000000) translate(955.000000, 90.000000)">
                    <polygon id="Fill-16" points="406.919364 198 335 181.705653 406.90161 148 421 167.118866"></polygon>
                    <path d="M372.379095,207.611217 C369.768932,211.415776 363.668878,218.492613 354.721045,217.056526 C350.349612,216.324193 172.444984,180.777466 172.004212,180.745315 C170.750826,180.4113 170.919517,177.773115 173.190485,178.041042 L371.192822,204.942667 C372.446208,205.142719 373.124596,206.543083 372.379095,207.611217 M365.70223,143.796439 L338.994769,157.280296 C338.994769,157.280296 332.791324,153.577549 339.77292,150.471386 C341.570468,149.672964 345.671634,147.368795 348.992835,145.666567 C350.823032,144.732396 350.688806,142.095998 348.755218,141.327941 L328.893312,133.484834 C332.25079,130.848436 337.469302,129.280171 342.45201,130.74841 C345.33244,131.614706 357.398321,136.621363 365.328572,139.891854 C367.770044,140.895686 367.193233,143.064106 365.70223,143.796439 M302.755408,161.822547 C299.907627,163.826638 281.148557,160.377529 281.148557,160.377529 C281.148557,160.377529 301.906515,142.217458 321.650519,139.891854 C327.522024,139.200603 339.401076,143.732137 339.401076,143.732137 C339.401076,143.732137 312.922164,154.613533 302.755408,161.822547 M505.306937,160.852652 C496.527793,141.929883 490.088546,125.773904 487.784927,121.905043 C481.073599,110.723569 471.075533,111.323725 462.501357,112.793749 C439.622981,116.662611 430.707797,120.63507 390.376339,131.182451 C384.444976,132.784652 373.260637,136.021207 367.091656,133.918875 C350.755919,128.412089 345.807675,124.007374 337.979,124.87367 C325.844192,126.241883 300.899816,137.791309 273.820511,157.280296 C265.346098,163.288999 266.327403,170.458717 264.8364,175.197447 C264.531669,176.231644 265.210058,177.233689 266.294754,177.365867 C270.225416,177.767757 313.2015,181.445497 315.167738,181.713424 C314.523813,181.379408 314.184619,180.777466 314.184619,180.143373 C314.184619,179.575369 314.4567,179.00915 315.066161,178.709072 C327.335196,172.20024 371.87121,148.970997 398.781825,138.525428 C435.588928,124.139551 444.469649,122.605225 455.653987,121.571028 C458.26415,121.337038 461.924545,121.503153 464.601821,121.669267 C466.771213,121.837168 468.668524,123.137506 469.346912,125.10766 C474.431197,139.793615 489.30858,172.968297 497.171718,183.947932 C497.171718,183.947932 495.784106,186.55218 493.139479,186.684357 C491.071665,186.72008 486.868922,182.881584 484.258759,180.611352 C483.683761,180.143373 482.869332,180.077285 482.190944,180.477389 C438.063051,207.278988 406.238655,218.960591 401.662255,220.561007 C401.290411,220.69497 400.884103,220.69497 400.510445,220.528856 L377.971264,212.251707 C377.971264,212.251707 378.818343,211.549739 380.920621,207.411165 C381.359578,206.444843 381.597195,205.342771 381.564546,204.642589 C381.394042,201.104171 377.938614,200.302177 376.378684,200.102125 C370.380207,199.368006 209.286551,175.970862 168.886165,172.066277 C151.736,170.365835 135.434726,179.00915 128.384203,188.054355 L128.418667,188.286558 L151.295229,211.762294 C151.804927,212.296362 152.584892,212.430325 153.228817,212.128461 L171.226061,203.974559 C171.226061,203.974559 173.69837,211.483651 171.394751,212.751837 C156.448441,220.827147 141.975551,228.037948 127.977896,235.279113 C122.351263,238.215589 122.487303,243.745596 120.657106,251.533332 C119.891652,254.793106 119.505297,257.776023 119.505297,257.776023 C119.505297,257.776023 150.888921,242.288075 170.106902,233.244656 C170.783476,232.944578 171.530792,233.076755 172.071326,233.610823 C174.817529,236.515148 175.720838,237.181392 177.583685,239.017583 C178.398114,239.851728 178.19496,241.152066 177.177377,241.687919 C172.63544,244.056391 167.959277,246.492738 164.365995,248.595069 C161.518215,250.265145 164.413156,255.839807 164.413156,255.839807 L216.641804,231.47634 C216.641804,231.47634 219.895892,234.64502 214.133218,238.151287 C205.219848,243.658073 122.859147,285.008092 115.775975,285.175992 C97.1021559,285.642185 61.853169,251.033202 49.1088998,245.760405 C38.3653322,241.319966 26.8073358,248.562918 11.1155236,257.64206 C6.84385356,260.144495 9.45401629,266.185349 9.45401629,266.185349 L32.1963514,254.839547 C32.1963514,254.839547 35.0096678,258.042164 31.8571572,259.976595 C20.8415087,266.85338 4.91389308,273.728378 2.47242051,275.464543 C-1.12086118,278.000916 0.261309771,289.882571 0.261309771,289.882571 L21.777467,280.062165 C22.4213918,279.762087 23.2358206,279.862113 23.5387373,280.162191 L69.6473797,323.391269 C72.3264696,322.723238 74.8332415,321.989119 78.1889059,320.554818 L39.7202951,280.269362 C38.9421437,279.435217 39.1779472,278.100942 40.1955297,277.600812 C44.1261917,275.630658 48.8386328,274.196357 55.4810344,279.201227 C61.0732037,283.373739 80.6285646,298.959927 99.5418146,297.291637 C105.846836,296.75757 105.948413,298.659849 105.948413,298.659849 C105.948413,298.659849 97.9147708,302.464408 88.3901256,307.603242 C83.6794984,310.173552 87.5085835,316.950311 87.5085835,316.950311 C136.247341,297.259486 196.272014,272.76027 204.6775,269.1897 C205.286961,268.955711 205.896423,269.055737 206.406121,269.421903 L220.505353,280.437262 C222.504241,283.507702 322.760609,245.560353 353.670812,230.174216 C355.399433,229.340071 371.123895,230.040253 378.716766,229.974164 C382.208471,229.974164 382.07243,231.47634 382.07243,231.47634 C382.07243,231.47634 131.163056,329.966189 69.6129161,327.695957 L69.5131531,327.762046 L56.3952262,333.30277 C64.0896739,338.309426 62.2594764,346.952741 75.3429398,340.277794 C76.1210911,342.047897 77.0370968,343.918025 77.9857522,345.918544 C80.5288016,351.361028 80.5288016,351.39318 97.1692692,345.818518 C144.24652,330.132304 355.974431,267.821488 403.390875,248.496829 C430.167263,237.61722 467.17752,222.59725 490.25905,208.513237 C513.034034,194.661427 517.677548,187.518502 505.306937,160.852652" id="Fill-20"></path>
                    <path d="M501.665015,123.0475 C501.388503,123.095 501.0555,123.14 500.776016,123.235 C500.499504,123.3275 500.222993,123.4675 500,123.655 L503,123 C502.497522,123 502.111001,123.0475 501.665015,123.0475" id="Fill-22"></path>
                    <path d="M560.380349,261.324586 L560.059734,261.859037 L559.708257,261.324586 C559.483655,260.989209 537.505202,227.143026 529.561824,214.038212 C527.158064,210.085425 529.978452,208.107239 529.978452,208.107239 L530.297353,207.908165 L530.521956,208.209466 C531.643253,209.681897 557.559961,245.004098 560.923853,251.505391 C563.487062,256.365669 560.508938,261.123719 560.380349,261.324586 M565.698795,254.353406 C564.287744,248.454715 553.973182,209.34652 548.013505,195.004218 L520.84691,144 C518.251125,147.653279 515.207849,151.573783 512.293162,154.421798 C511.747944,154.891684 511.171865,155.29342 510.499772,155.628797 C509.666515,155.998249 508.833257,156.199117 508,156.231399 L522.6403,206.53258 C524.819457,214.610326 529.913301,221.479279 534.302476,228.448665 C536.512494,231.901077 552.082065,256.197083 558.072603,265.51411 C559.32249,267.456427 562.110302,267.522785 563.327612,265.546392 C565.505054,262.061698 566.562914,257.839893 565.698795,254.353406" id="Fill-24"></path>
                    <path d="M486.686482,58.741366 L486.331561,58.93884 L486.084824,58.642629 C484.877712,57.1598111 456.222094,22.4696303 452.428043,16.0446738 C449.660796,11.2347722 452.925312,6.58884453 453.065762,6.39137057 L453.420683,5.89768565 L453.811666,6.39137057 C454.058403,6.75458161 478.422701,40.0624447 487.183751,52.9105946 C489.842813,56.7983632 486.722543,58.7096291 486.686482,58.741366 L486.686482,58.741366 Z M495.551921,62.2024499 C492.255139,51.8227246 486.616257,45.1015572 481.721381,38.2164158 C479.274892,34.7570951 461.365604,9.94942825 455.052941,1.21825795 C453.881891,-0.428533863 451.256992,-0.395033815 450.08784,1.25352116 C447.497105,4.84331573 446.364014,9.35700636 447.356655,12.980301 C448.952851,18.7458355 459.981981,56.9958372 466.57934,71.0958309 L494.027847,116 C494.701628,115.308841 495.551921,114.716419 496.510398,114.319708 C497.184179,114.056997 497.894021,113.893023 498.567802,113.859523 C502.185341,113.628549 507.858387,113.660286 513,113.760786 L495.551921,62.2024499 Z" id="Fill-26"></path>
                    <path d="M507.976615,131.550088 L504.081868,121.90554 C504.081868,121.90554 503.379788,120.465288 504.976976,119.70842 C505.103385,119.640449 505.231501,119.570641 505.392074,119.535737 C505.392074,119.535737 521.510863,118.918486 526.553536,119.983979 C529.235445,120.566326 529.331106,121.595078 529.331106,121.595078 L507.976615,131.550088 Z M530.096389,117.478233 C523.362576,115.86346 510.626068,115.760585 502.997146,116.276798 C502.677709,116.276798 502.453931,116.276798 502.168658,116.309865 C502.008085,116.344769 501.816764,116.377836 501.625443,116.447645 C501.464871,116.515616 501.306006,116.620328 501.145433,116.791174 C500.284489,117.478233 499.742982,118.815611 500.123916,119.846199 C503.955459,130.245778 507.33774,138.312294 511.775702,147.787833 C512.349665,149.057239 514.040805,149.262989 515.253643,148.713709 C515.509877,148.577767 515.76611,148.405084 515.955723,148.234237 C522.467467,141.712686 528.59657,132.477802 532.458861,123.312726 C533.639243,120.430384 532.904707,118.163456 530.096389,117.478233 L530.096389,117.478233 Z" id="Fill-29"></path>
                    <path d="M440.627304,123 C440.627304,123 437.397059,136.444497 432.304118,151.967627 L422.876373,139.979449 L415.23152,143.476077 L429.130098,161.180036 C424.798922,173.124415 419.566324,184.999445 414,192 L427.933039,185.627232 C431.103431,182.670793 433.668039,176.679441 435.663137,169.50369 L443.317059,179.254463 L451,175.739586 L438.02098,159.236452 C440.830441,144.321035 441.635735,128.09712 440.627304,123" id="Fill-31"></path>
                </g>
            </g>
        </g>
    </g>
</svg>