<svg version="1.1" id="Слой_1" xmlns="http://www.w3.org/2000/svg" x="0" y="0" viewBox="0 0 100 40" style="enable-background:new 0 0 100 40" xml:space="preserve"><style>.st0{fill:#8fc641}</style><path class="st0" d="M94.2 15.5c-.1-.6-.4-1.2-.8-1.6-.5-.6-1.2-1-1.9-1.2-.8-.3-1.6-.5-2.4-.5H81l-.3 1.9-.8 4.7-.8 3.9-.3 1.8c0 .2 0 .2-.2.2h-8v-.6l.4-2c0-.2 0-.2.2-.2h4.5c.3 0 .2 0 .3-.2l.5-2.9h-4.6c-.2 0-.2 0-.2-.2l.5-2.5c0-.3 0-.2.3-.2h4.8l.2-1.4.4-2v-.2H67.5v.7c0 .8-.3 1.6-.4 2.5l-.5 2.8-.6 3.4-.5 2.5s0 .1-.2.1h-3.5c-.1 0-.2 0 0-.1l.6-3.5.6-3.3.7-3.5.2-1.3h-5.5l-.9 3.8-.6 3.6-.7 3.8c0 .1 0 .1-.2.1h-3.4c-.1 0-.1 0 0-.1l.8-4.5.9-4.6.5-2.5V12h-5.5v.7l-.4 2.2-.6 2.6-.5 3-.6 3.1c.1.2.1.5 0 .7 0 .3 0 0-.1 0h-8c-.2 0-.2 0-.2-.3l.5-2.5c0-.2 0-.2.2-.2h4.8l.5-3.1H40c-.2 0-.2 0-.2-.2l.5-2.5H45.5c0-.3.1-.7.2-1l.4-2.5v-.1h-32c0 .3 0 .6-.2.9l-.6 3.4-.6 3-.4 2.5v.1l-1.9-5.3L8.8 12H3.1l-.3 1.2-.8 4.1-.8 4.1-.7 3.9L0 28v.1h5.4v-.3l.5-3 .6-3.3.5-3.1V18l.7 2.1 1.8 5 .9 2.7v.2h19.2v-.8l.6-3.2.6-3.1.5-2.8.5-2.5c0-.1 0-.1.2-.1h3v.5l-.8 4-.8 4.1-.4 2.7-.2 1h50.4v-.7l.4-2.5.6-3.3.2-1.3 1.1 3.7 1.2 4h5.4l-.6-1.5L90 22v-.2c.5-.1 1-.2 1.5-.4 1.2-.5 2.2-1.6 2.5-2.9.1-.5.2-1 .2-1.5.1-.6 0-1 0-1.5zm-67.5.3c0 .3 0 .6-.2.8l-.5 2.5-.5 2.8-.5 2.5c0 .1 0 .1-.2.1H17l.5-2v-.7c0-.2 0-.2.2-.2h4.8c.2 0 .2 0 .3-.2l.5-2.7v-.2h-4.8c-.2 0-.2 0-.2-.2l.4-2.5c0-.2 0-.2.2-.2h7.8s.2 0 0 .2zm62.1 2.4c-.2.5-.6.9-1.1 1.1-.4.2-.8.3-1.2.3H85c-.2 0-.2 0-.2-.2l.2-1 .5-2.8c0-.3 0-.3.3-.3H87c.4 0 .7.1 1 .3.6.3 1.1.9 1 1.6 0 .4-.1.8-.2 1.1v-.1zM98.1 25.9h.2c.4-.1.5-.5.4-.9 0-.1-.1-.2-.2-.2-.1-.1-.3-.2-.5-.2h-1.2c-.4 0-.2 0-.2.3v2c0 .3 0 .2.2.2s.2 0 .2-.1v-1h.2c.3-.1.6 0 .7.3l.5.7h.4c-.2-.4-.4-.7-.7-1.1zm-.3-.2H96.9c-.2 0 0-.3 0-.5s0-.2.2-.2h.9c.2.1.3.3.3.5 0 .1-.1.2-.3.3l-.2-.1z"/><path class="st0" d="M100 25c-.6-1.2-2.2-1.7-3.4-1-.7.4-1.2 1.1-1.3 2 .1.9.7 1.7 1.6 2h1.2c.2 0 .4 0 .6-.2.7-.3 1.2-.9 1.4-1.6v-.9c-.1-.2-.1-.2-.1-.3zm-2.5 2.7c-1.1 0-2-.9-2-2s.9-2 2-2 2 .9 2 2-.9 2-2 2z"/></svg>