<svg version="1.2" baseProfile="tiny" xmlns="http://www.w3.org/2000/svg" viewBox="0 0 93.5 25.9" xml:space="preserve"><linearGradient id="a" gradientUnits="userSpaceOnUse" x1="19.534" y1="42.32" x2="69.483" y2="-17.207"><stop offset="0" style="stop-color:#e14a55"/><stop offset="1" style="stop-color:#8e278f"/></linearGradient><path fill-rule="evenodd" fill="url(#a)" d="M89.1 9.7c-.9.4-1.8.7-2.7.9l-1.6.4c-.8.2-1.4.5-1.8.9-.3.5-.5 1-.5 1.5 0 .6.2 1.2.6 1.7.4.4 1 .6 1.8.6 1.3 0 2.3-.4 3-1.1.7-.7 1.1-1.8 1.1-3.1V9.7h.1zm1.1 8.6c-1 .5-2 .8-3.1.9-.9.1-1.9.2-2.9.2-1.6 0-3.1-.5-4.3-1.4-1.2-.9-1.9-2.4-1.9-4.5 0-2 .6-3.4 1.7-4.2 1.1-.8 2.6-1.4 4.3-1.7.3 0 .6 0 .8-.1.4-.1.7-.1 1.1-.2 2-.3 3-.9 3-1.8 0-.7-.4-1.2-1.1-1.4-.6-.2-1.3-.3-2-.3-.6 0-1.2.1-1.7.3-.5.2-.9.6-1.1 1.1h-4.6c.2-1.4.8-2.7 1.9-3.6C81.5.5 83.3 0 85.6 0c2.6 0 4.5.4 5.8 1.3 1.3.9 2 2.2 2 3.9v6.4c0 1.9-.3 3.3-1 4.4-.4 1-1.2 1.8-2.2 2.3zm-22.5.8v-9c0-1.8.3-3.4.8-4.6.5-1.2 1.2-2.2 2.2-3 .9-.7 1.9-1.2 3.1-1.5C75 .7 76.2.5 77.4.5h.6v5h-1.6c-1.3 0-2.3.3-3 1-.6.7-1 1.7-1 3.1v9.6l-4.7-.1zm-5.2-9.4c-.9.4-1.8.7-2.7.9l-1.6.4c-.8.2-1.4.5-1.8.9-.3.5-.5 1-.5 1.5 0 .6.2 1.2.6 1.7.4.4 1 .6 1.8.6 1.3 0 2.3-.4 3-1.1.7-.7 1.1-1.8 1.1-3.1l.1-1.8zm1.1 8.6c-1 .5-2 .8-3.1.9-.9.1-1.9.2-2.9.2-1.6 0-3.1-.5-4.3-1.4-1.2-.9-1.9-2.4-1.9-4.5 0-2 .6-3.4 1.7-4.2s2.6-1.4 4.3-1.7c.3 0 .6 0 .8-.1.4-.1.7-.1 1.1-.2 2-.3 3-.9 3-1.8 0-.7-.4-1.2-1.1-1.4-.6-.2-1.3-.3-2-.3-.6 0-1.2.1-1.7.3-.5.2-.9.6-1.1 1.1H52c.2-1.4.8-2.7 1.9-3.6C55.1.5 56.9 0 59.2 0c2.6 0 4.5.4 5.8 1.3 1.3.9 2 2.2 2 3.9v6.4c0 1.9-.3 3.3-1 4.4-.6 1-1.4 1.8-2.4 2.3zM46.4 9.8c0-1.8-.3-3.2-1-4.2s-1.7-1.5-3-1.5c-1.2 0-2.2.5-2.9 1.5-.6.9-1 2.3-1 4.2 0 1.8.3 3.1 1 4 .7 1 1.7 1.5 3 1.5 1.1 0 2.2-.5 2.8-1.5.7-1 1.1-2.3 1.1-4zm-7.9 13.7c0 .6-.2 1.2-.7 1.7-.4.5-1 .7-1.7.7h-2.3V8.5c0-3.3.9-5.5 2.8-6.7C38.4.6 40.6 0 42.7 0c1.2 0 2.4.2 3.5.7 1.1.4 2 1 2.8 1.9 1.4 1.8 2.1 4.2 2.1 7 0 2.9-.7 5.3-2.1 7.1-1.4 1.8-3.1 2.7-5.3 2.7-1 0-2.1-.2-3-.6-.9-.5-1.7-1.2-2.2-2.2v6.9zM28.7 9.7c-.9.4-1.8.7-2.7.9l-1.6.3c-.8.2-1.4.5-1.8.9-.3.5-.5 1-.5 1.5 0 .6.2 1.2.6 1.7.4.4 1 .6 1.8.6 1.3 0 2.3-.4 3-1.1.7-.7 1.1-1.8 1.1-3.1l.1-1.7zm1.1 8.6c-1 .5-2 .8-3.1.9-.9.1-1.9.2-2.9.2-1.6 0-3.1-.5-4.3-1.4-1.2-.9-1.9-2.4-1.9-4.5 0-2 .6-3.4 1.7-4.2 1.1-.8 2.6-1.4 4.3-1.7.3 0 .6 0 .8-.1.3-.1.7-.1 1.1-.2 2-.3 3-.9 3-1.8 0-.7-.4-1.2-1.1-1.4-.6-.2-1.3-.3-2-.3-.6 0-1.2.1-1.7.3-.5.2-.9.6-1.1 1.1H18c.2-1.4.8-2.7 1.9-3.6C21.1.5 22.9 0 25.2 0c2.6 0 4.5.4 5.8 1.3 1.3.9 2 2.2 2 3.9v6.4c0 1.9-.3 3.3-1 4.4-.4 1-1.2 1.8-2.2 2.3zM4.7 23.5c0 .6-.2 1.2-.7 1.7-.4.5-1 .7-1.7.7H0V8.5C0 5.2.9 3 2.8 1.8 4.6.6 6.8 0 8.9 0c1.2 0 2.4.2 3.5.7 1.1.4 2 1 2.8 1.9 1.4 1.8 2.1 4.2 2.1 7 0 2.9-.7 5.3-2.1 7.1-1.4 1.8-3.1 2.7-5.3 2.7-1 0-2.1-.2-3-.6-.9-.5-1.7-1.2-2.2-2.2v6.9zm7.8-13.7c0-1.8-.3-3.2-1-4.2s-1.7-1.5-3-1.5c-1.2 0-2.2.5-2.9 1.5-.6.9-1 2.3-1 4.2 0 1.8.3 3.1 1 4 .7 1 1.7 1.5 3 1.5 1.1 0 2.2-.5 2.8-1.5.8-1 1.1-2.3 1.1-4z"/></svg>