<svg version="1.1" id="Слой_1" xmlns="http://www.w3.org/2000/svg" x="0" y="0" viewBox="0 0 100 40" style="enable-background:new 0 0 100 40" xml:space="preserve"><style>.st0{fill:#852165}</style><path class="st0" d="M23.8 13.8c-1-.4-2.1-.8-3.1-1.1-2.5-.8-5.2-1.1-7.9-1.1-.7 0-1.4.2-2.1.5-1 .3-1.6 1.3-1.5 2.4.1.9.8 1.7 1.7 1.9.8.2 1.7.3 2.5.3 2.5.2 4.8.9 7 2.1 4.4 2.6 5.9 8.3 3.3 12.8-.7 1.2-1.7 2.2-2.9 3-2.1 1.5-4.7 2.4-7.3 2.5C9.3 37.3 5.1 37 1 36c-.4 0-.5-.2-.5-.5v-6.6c0-.4 0-.4.4-.3 2.7 1 5.5 1.6 8.3 1.7 1.2.1 2.5-.1 3.6-.4.6-.2 1.2-.5 1.6-.9 1-.8 1.1-2.2.3-3.2-.3-.3-.6-.6-1-.7-.8-.3-1.7-.4-2.6-.4-1.9-.2-3.8-.6-5.5-1.3-3.7-1.4-6-5.1-5.7-9 .2-3.7 2.7-7 6.2-8.3 1.9-.8 4-1.2 6.1-1.2 3.7-.1 7.4.4 11 1.6.3.1.6.4.5.7 0 2.1.1 4.3.1 6.6zM49.7 36.8h-9.9c-.3 0-.4 0-.5-.4-.7-2.8-1.7-5.5-3.1-8.1-.1-.3-.3-.5-.5-.7v8.8c0 .3 0 .4-.4.4h-7.7c-.3 0-.4 0-.4-.4V6.9c0-.3 0-.4.4-.5l7.8-1.5c.4 0 .4 0 .4.4V21.4c.2 0 .2-.2.3-.3 1.7-2.2 3.2-4.6 4.2-7.2.1-.3.4-.5.7-.5h9.3c-.5 1.4-1 2.8-1.7 4.2-1.1 2.4-2.5 4.7-4.1 6.8-.2.2-.2.5 0 .7 1.8 3.1 3.4 6.4 4.7 9.8.1.5.3 1.2.5 1.9zM87.8 20.8v15.4c0 .4 0 .5-.5.5H80c-.3 0-.4 0-.4-.5V6.6c0-.4 0-.5.4-.5l7.5-1.3c.4 0 .5 0 .5.4-.1 5.2-.2 10.4-.2 15.6zM100 20.8v15.3c0 .5-.1.6-.6.5h-7.3c-.3 0-.4 0-.4-.5V6.5c0-.4 0-.5.5-.5l7.4-1.3c.4 0 .5 0 .5.4-.1 5.4-.1 10.5-.1 15.7zM51.4 29.4V23c-.1-2.3.7-4.6 2.2-6.4 1-1.1 2.2-2 3.6-2.5 2.4-.9 5-1.2 7.5-1 .4 0 .4.2.4.5v5.9c0 .3 0 .5-.5.5-.7 0-1.4.1-2 .3-1.5.3-2.5 1.6-2.6 3.1-.1.7-.2 1.5-.2 2.2v10.7c0 .4 0 .5-.5.5h-7.5c-.4 0-.5 0-.5-.5.1-2.3.1-4.6.1-6.9zM67.7 25V13.8c0-.4 0-.5.4-.5h7.5c.3 0 .4 0 .4.4v22.5c0 .3 0 .4-.4.4h-7.5c-.3 0-.4 0-.4-.4V25zM67.8 7c0-2.3 1.9-4.1 4.1-4.1C74.2 2.9 76 4.8 76 7c0 2.3-1.9 4.1-4.1 4.1-2.3 0-4.2-1.8-4.1-4.1-.1 0-.1 0 0 0z"/></svg>