<svg version="1.1" id="Layer_1" xmlns="http://www.w3.org/2000/svg" x="0" y="0" viewBox="0 0 100 40" style="enable-background:new 0 0 100 40" xml:space="preserve"><style>.st0{fill:#00579f}</style><g id="g4158" transform="matrix(4.42996 0 0 4.42996 -81.166 -105.048)"><path id="polygon9" class="st0" d="M28.1 31.8h-1.8l1.1-7.1h1.8z"/><path id="path11" class="st0" d="M34.7 24.9c-.4-.1-.9-.3-1.6-.3-1.8 0-3.1 1-3.1 2.3 0 1 .9 1.6 1.6 1.9.7.3.9.6.9.9 0 .5-.6.7-1.1.7-.7 0-1.1-.1-1.7-.4l-.2-.1-.3 1.6c.4.2 1.2.4 2 .4 1.9 0 3.2-.9 3.2-2.4 0-.8-.5-1.4-1.5-1.9-.6-.3-1-.5-1-.9 0-.3.3-.6 1.1-.6.6 0 1 .1 1.4.3l.2.1.1-1.6z"/><path id="path13" class="st0" d="M37.2 29.3c.2-.4.7-2 .7-2s.2-.4.2-.7l.1.6s.3 1.7.4 2c-.2.1-1.1.1-1.4.1zm2.2-4.6H38c-.4 0-.8.1-1 .6l-2.7 6.5h1.9s.3-.9.4-1.1h2.3c.1.2.2 1.1.2 1.1h1.7l-1.4-7.1z"/><path id="path15" class="st0" d="M24.7 24.7 23 29.5l-.2-1c-.3-1.1-1.4-2.4-2.5-3l1.6 6.2h1.9l2.9-7.1h-2v.1z"/><path id="path17" d="M21.3 24.7h-2.9v.1c2.3.6 3.8 2 4.4 3.7l-.6-3.3c-.2-.4-.5-.5-.9-.5z" style="fill:#faa61a"/></g></svg>