<svg version="1.1" id="Layer_1" xmlns="http://www.w3.org/2000/svg" x="0" y="0" viewBox="0 0 300 100" style="enable-background:new 0 0 300 100" xml:space="preserve"><style>.st1{fill:#f1f1f1}</style><path d="M5 0h290c2.8 0 5 2.2 5 5v90c0 2.8-2.2 5-5 5H5c-2.8 0-5-2.2-5-5V5c0-2.8 2.2-5 5-5z" style="fill:#6ac21e"/><path class="st1" d="M10 54c0-17 10.6-29.6 28-29.6 13 0 21.5 6.4 22 19.2H45.6c-.5-5.2-2.9-8-8-8-8.3 0-12.4 8.3-12.6 17.8 0 6.5 2.7 11.3 9.6 11.3 5 0 8.5-2.9 9.9-8.3h14.2c-2 13-12.1 19.6-24.2 19.6C19.7 76 10 68.5 10 54z"/><path class="st1" d="M76.1 67.5c2.9.3 5.7-1.5 6.5-4.3h11.9c-1.8 8.5-8.9 13-18.7 13C65.3 76.2 57 71 57 59.6c0-13.1 8.7-21.8 20.8-21.8 12.1 0 19.2 7.5 17.2 20.4l-.3 1.8H69.3v.3c0 4 1.8 7.2 6.8 7.2zm-6-14.7h13.1c.3-4.1-1-6.9-5.5-6.9-3.1 0-6.2 1.9-7.6 6.9z"/><path class="st1" d="M135.1 53.5c0 14-7.4 22.6-17.7 22.6-5.9 0-9.9-2.9-11.5-6.7L103 87.5H90.5l5.8-36.9c.7-4 1.1-7.9 1.3-12h12.2c0 1.9-.1 3.8-.3 5.7 2.5-4.3 7.3-6.9 12.3-6.6 7.6 0 13.3 5.4 13.3 15.8zm-13 .9c0-4.8-2.1-7.4-6-7.4-5 0-8.8 5.1-8.8 12.2 0 4.8 2.3 7.4 6.5 7.4 5 0 8.3-4.9 8.3-12.2zM141.2 25.3h20.2c11.5 0 16 5.1 16 12.2 0 6.5-4 10.5-9.7 12 5 1.1 8.6 4.4 8.6 10.5 0 9.2-7.5 15.3-19.2 15.3h-23.8l7.9-50zm13.9 40.4c4.8 0 7.4-2.7 7.4-6.6 0-3.5-2-5.2-6.7-5.2h-5.1l-1.9 11.8h6.3zm2.5-20.6c4.6 0 6.8-2 6.8-5.8 0-3.2-1.8-4.5-5.7-4.5h-5.1l-1.8 10.4h5.8z"/><path class="st1" d="M174.5 65.9c0-9.6 7.4-12.8 19.2-12.8h5.4l.1-1c.6-3.5-.2-5.7-4.2-5.7-2.6-.2-4.9 1.7-5.2 4.3H178c1.8-9 8.3-13.2 17.6-13.2 11.8 0 17.5 5.1 15.8 16l-1.5 10.1c-.8 3.7-.9 7.6-.6 11.4h-12.1c-.2-1.5-.3-3-.2-4.5-2.5 3.5-6.5 5.6-10.8 5.4-6.7.1-11.7-3.6-11.7-10zm23.2-3.5.3-2.2h-3.9c-5 0-7.1 1-7.1 4 0 1.9 1.4 3.5 4.1 3.5 3.2.2 6.1-2.1 6.6-5.3zM213.8 50.6c.7-4 1.1-7.9 1.3-12h12.2c0 2.1-.1 4.2-.4 6.2 2.5-4.5 7.3-7.3 12.5-7.2 7 0 12.1 4.5 10.4 15.5l-3.5 22h-12.5l3.3-21.1c.7-4.3-.7-6.3-4.1-6.3-3.9 0-6.6 2.5-7.3 7.2l-3.2 20.2H210l3.8-24.5zM256.6 22.5h12.5l-4.9 30.7 12.2-14.6H290l-15.1 17 9.9 19.6h-13.5l-7.8-16.8-2.6 16.8h-12.5l8.2-52.7z"/></svg>