<?xml version="1.0" encoding="utf-8"?>
<!-- Generator: Adobe Illustrator 25.2.1, SVG Export Plug-In . SVG Version: 6.00 Build 0)  -->
<svg version="1.1" id="Слой_1" xmlns="http://www.w3.org/2000/svg" xmlns:xlink="http://www.w3.org/1999/xlink" x="0px" y="0px"
	 viewBox="0 0 20 20" style="enable-background:new 0 0 20 20;" xml:space="preserve">
<style type="text/css">
	.st0{fill:#FFE81F;}
</style>
<g>
	<g transform="translate(0.000000,511.000000) scale(0.100000,-0.100000)">
		<path class="st0" d="M92.2,5110c-13.9-1.5-24.3-4.3-35.5-9.7c-10.9-5.2-18.9-10.9-27.5-19.6c-15.6-15.6-25-34.3-28.5-56.6
			c-1.1-7.1-1.1-21.3,0-28.4c2.7-17.3,9.1-32.7,19.5-46.5c4.1-5.5,13.5-14.9,19-19c13.9-10.4,29.3-16.9,46.5-19.5
			c7.1-1.1,21.4-1.1,28.4,0c24.6,3.8,46.7,16,62.2,34.5c12.1,14.4,19.9,31.7,22.8,50.6c1.1,7,1.1,21.3,0,28.4
			c-2.7,17.3-9.1,32.6-19.5,46.5c-4.1,5.5-13.5,14.9-19,19c-13.8,10.3-29.3,16.9-46.1,19.4C110.1,5109.8,95.8,5110.3,92.2,5110z
			 M106.6,5088c10.3-0.9,18.9-3.4,28.2-8c7.4-3.7,13-7.6,18.9-13.2c7-6.6,12.3-13.8,16.5-22.1c2-4,2.7-6.7,2-9
			c-0.4-1.5-2.2-3.6-3.5-4.1c-0.2-0.1,0.1-6.2,0.9-15.4c0.7-8.4,1.3-15.4,1.3-15.4c0,0,0.6-0.3,1.3-0.6c1.7-0.7,3.8-3.1,4.2-4.8
			c0.3-1.6-1-7.1-3.2-13c-6-16.1-17.7-30.2-32.7-39.5c-6.6-4-17.4-8.4-20.8-8.4c-3.5,0-6.1,2.8-6.9,7.2l-0.4,1.9l-12.2,0.1
			l-12.2,0.1l-0.7-2.9c-1.6-6.6-5-7.9-13-5.1c-20.4,7.3-36.4,21.7-45.5,41c-3.2,6.8-6.1,16.5-5.5,18.6c0.4,1.5,2.7,4,4.3,4.7
			c0.9,0.4,1.3,0.9,1.4,1.5c0,0.5,0.5,7.4,1.2,15.4l1.2,14.5l-1.3,0.9c-1.9,1.2-3,3.5-2.8,5.9c0.4,3.7,6.1,14,11.5,20.7
			c3.9,4.8,10.8,11.4,15.8,15c4.9,3.5,15,8.7,20.2,10.3C86.3,5087.8,96,5089,106.6,5088z"/>
		<path class="st0" d="M84,5041.6c-15.4-1.5-30.9-4.6-43.6-8.7c-4.2-1.3-4.3-1.4-4.3-2.7c0-0.7-0.4-7.4-0.9-14.8
			c-0.5-7.5-0.8-13.7-0.8-13.8c0.1-0.1,2.7,0,5.7,0.3c16.5,1.4,30.3-3.8,38.5-14.5c6.2-8.2,9.8-20,10-33.3l0.1-5.8l11.8-0.1
			l11.8-0.1l0.4,5.4c0.9,16.8,5.4,28.3,14,36.6c8.3,7.9,18.1,11.4,32.1,11.5h7l-0.3,3.8c-0.1,2.1-0.4,7.8-0.7,12.6
			c-0.3,4.9-0.6,9.9-0.7,11.2l-0.2,2.3l-3.8,1.4c-12.2,4.4-25.4,7.3-39.6,8.7C112.3,5042.5,92.1,5042.5,84,5041.6z M107.3,5022.6
			c5.9-2,8.6-5.9,6.7-9.4c-0.9-1.8-2.4-3-5.4-4.4c-2.5-1.2-3-1.2-8.7-1.2c-5.6,0-6.2,0.1-8.7,1.2c-9.7,4.5-7.5,11.8,4.4,14.7
			C97.6,5023.9,105.1,5023.4,107.3,5022.6z"/>
	</g>
</g>
</svg>
